<?xml version="1.0" encoding="UTF-8"?>
<svg width="14px" height="14px" viewBox="0 0 14 14" version="1.1" xmlns="http://www.w3.org/2000/svg" xmlns:xlink="http://www.w3.org/1999/xlink">
    <title>Shape Copy 5</title>
    <g id="Page-1" stroke="none" stroke-width="1" fill="none" fill-rule="evenodd">
        <g id="alt-gradient-copy-2" transform="translate(-294.000000, -1.000000)" fill="#BE0C0C" fill-rule="nonzero">
            <path d="M296.050132,3.05013193 C293.316623,5.78364116 293.316623,10.2163588 296.050132,12.9498681 C298.783641,15.6833773 303.216359,15.6833773 305.949868,12.9498681 C308.683377,10.2163588 308.683377,5.78364116 305.949868,3.05013193 C303.216359,0.316622691 298.783641,0.316622691 296.050132,3.05013193 Z M301.006897,3 C301.558621,3 302,3.45205479 302,4 C302,4.54794521 301.544828,5 301.006897,5 C300.455172,5 300,4.54794521 300,3.98630137 C300,3.43835616 300.455172,3 301.006897,3 Z M302.990534,11.1891892 C302.957975,11.2702703 302.892857,11.3648649 302.827739,11.4189189 C302.404472,11.7837838 301.883528,12 301.264906,12 C300.971875,12 300.695123,12 300.402092,11.9594595 C299.929986,11.9054054 299.327644,11.4189189 299.409042,10.9054054 C299.47416,10.5540541 299.539278,10.2027027 299.604396,9.85135135 C299.734632,9.24324324 299.864868,8.62162162 299.995104,8.01351351 C299.995104,7.97297297 300.011384,7.93243243 300.011384,7.89189189 C300.011384,7.63513514 299.913707,7.54054054 299.604396,7.51351351 C299.47416,7.5 299.343924,7.48648649 299.213688,7.45945946 C299.067172,7.41891892 298.985775,7.31081081 299.002054,7.21621622 C299.018334,7.10810811 299.099731,7.04054054 299.262526,7.01351351 C299.343924,7 299.441601,7 299.539278,7 C299.897427,7 300.255577,7 300.630005,7 C301.020714,7 301.395142,7 301.785851,7 C302.062602,7 302.225397,7.10810811 302.225397,7.33783784 C302.225397,7.52702703 302.192838,7.71621622 302.144,7.90540541 C301.997484,8.60810811 301.834689,9.2972973 301.688173,10 C301.639335,10.2297297 301.574217,10.4594595 301.541658,10.6891892 C301.525378,10.7972973 301.541658,10.9189189 301.574217,11.027027 C301.623055,11.1756757 301.753292,11.2567568 301.932366,11.2432432 C302.078882,11.2297297 302.225397,11.1891892 302.371913,11.1351351 C302.48587,11.0945946 302.583547,11.027027 302.697503,11 C302.892857,10.9459459 303.039373,11.0405405 302.990534,11.1891892 Z" id="Shape-Copy-5"></path>
        </g>
    </g>
</svg>